<svg xmlns="http://www.w3.org/2000/svg" viewBox="0 0 512 512" width="100%" height="100%">
  <defs>
    <linearGradient id="atsGradient" x1="0%" y1="0%" x2="100%" y2="100%">
      <stop offset="0%" stop-color="#1a6ef5" />
      <stop offset="100%" stop-color="#0d46a0" />
    </linearGradient>
    <linearGradient id="checkGradient" x1="0%" y1="100%" x2="100%" y2="0%">
      <stop offset="0%" stop-color="#10b981" />
      <stop offset="100%" stop-color="#059669" />
    </linearGradient>
  </defs>

  <circle cx="256" cy="256" r="220" fill="none" stroke="#e5e7eb" stroke-width="24" />

  <circle cx="256" cy="256" r="220" fill="none" stroke="url(#atsGradient)" stroke-width="24" 
          stroke-dasharray="1382" stroke-dashoffset="276" stroke-linecap="round" />

  <g transform="translate(146, 116)">
    <rect x="0" y="0" width="220" height="280" rx="16" fill="#ffffff" 
          box-shadow="0 10px 15px rgba(0,0,0,0.1)" filter="drop-shadow(0px 8px 16px rgba(0,0,0,0.08))" />
    
    <rect x="24" y="32" width="110" height="16" rx="4" fill="#374151" />
    <rect x="24" y="56" width="60" height="8" rx="2" fill="#9ca3af" />
    
    <line x1="24" y1="84" x2="196" y2="84" stroke="#e5e7eb" stroke-width="4" stroke-linecap="round" />
    
    <rect x="24" y="108" width="140" height="12" rx="3" fill="#1a6ef5" opacity="0.8" />
    <circle cx="30" cy="142" r="4" fill="#9ca3af" />
    <rect x="44" y="138" width="130" height="8" rx="2" fill="#9ca3af" />
    
    <circle cx="30" cy="166" r="4" fill="#9ca3af" />
    <rect x="44" y="162" width="110" height="8" rx="2" fill="#9ca3af" />
    
    <rect x="24" y="194" width="90" height="12" rx="3" fill="#1a6ef5" opacity="0.8" />
    <rect x="24" y="222" width="150" height="8" rx="2" fill="#9ca3af" />
    <rect x="24" y="238" width="120" height="8" rx="2" fill="#9ca3af" />
  </g>

  <g transform="translate(320, 320)">
    <circle cx="48" cy="48" r="54" fill="#ffffff" />
    <circle cx="48" cy="48" r="44" fill="url(#checkGradient)" />
    <path d="M32 48 L44 60 L68 36" fill="none" stroke="#ffffff" stroke-width="10" stroke-linecap="round" stroke-linejoin="round" />
  </g>
</svg>
